Coordinates
version=1
nRows=65
nColumns=12
inDegrees=yes

Units are S.I. units (second, meters, Newtons, ...)
Angles are in degrees

endheader
time	SC_y	SC_z	SC_x	AC_y	AC_z	AC_x	GH_y	GH_z	GH_yy	EL_x	PS_y
       0.0              -29.33          8.837          38.25          64.96         -8.193         -15.37          174.0          84.49         -87.26          87.53          52.21
   0.03559              -29.34          8.841          38.25          64.96         -8.193         -15.37          174.0          84.48         -87.22          87.53          52.22
   0.07118              -29.34          8.844          38.24          64.96         -8.194         -15.37          174.0          84.47         -87.19          87.53          52.24
    0.1068              -29.34          8.848          38.24          64.96         -8.194         -15.38          174.0          84.46         -87.15          87.54          52.25
    0.1424              -29.34          8.853          38.24          64.95         -8.194         -15.38          174.0          84.44         -87.11          87.54          52.27
     0.178              -29.35          8.857          38.24          64.95         -8.195         -15.38          174.0          84.43         -87.07          87.55          52.29
    0.2136              -29.35          8.862          38.23          64.95         -8.195         -15.38          174.0          84.41         -87.03          87.55          52.31
    0.2491              -29.35          8.867          38.23          64.94         -8.196         -15.38          174.0          84.39         -86.98          87.56          52.33
    0.2847              -29.36          8.873          38.22          64.94         -8.196         -15.38          174.0          84.37         -86.93          87.57          52.35
    0.3203              -29.36          8.879          38.22          64.94         -8.197         -15.38          173.9          84.35         -86.87          87.57          52.38
    0.3559              -29.37          8.885          38.22          64.93         -8.197         -15.38          173.9          84.33         -86.82          87.58           52.4
    0.3915              -29.37          8.892          38.21          64.93         -8.198         -15.38          173.9          84.31         -86.75          87.59          52.43
    0.4271              -29.38          8.899          38.21          64.92         -8.198         -15.38          173.9          84.28         -86.68           87.6          52.46
    0.4627              -29.38          8.907           38.2          64.92         -8.199         -15.38          173.9          84.26         -86.61          87.61          52.49
    0.4983              -29.39          8.916          38.19          64.91         -8.199         -15.39          173.9          84.23         -86.53          87.62          52.53
    0.5339               -29.4          8.925          38.19          64.91           -8.2         -15.39          173.9           84.2         -86.44          87.63          52.57
    0.5695              -29.41          8.936          38.18           64.9         -8.201         -15.39          173.9          84.16         -86.35          87.64          52.61
    0.6051              -29.41          8.947          38.17          64.89         -8.202         -15.39          173.8          84.13         -86.25          87.65          52.65
    0.6407              -29.42          8.959          38.16          64.88         -8.203         -15.39          173.8          84.09         -86.14          87.66           52.7
    0.6762              -29.43          8.972          38.15          64.88         -8.204         -15.39          173.8          84.04         -86.01          87.68          52.76
    0.7118              -29.44          8.987          38.14          64.87         -8.205          -15.4          173.8          83.99         -85.88           87.7          52.82
    0.7474              -29.45          9.003          38.13          64.86         -8.206          -15.4          173.8          83.94         -85.73          87.72          52.88
     0.783              -29.47          9.021          38.12          64.84         -8.208          -15.4          173.7          83.88         -85.57          87.74          52.95
    0.8186              -29.48           9.04          38.11          64.83         -8.209          -15.4          173.7          83.81         -85.39          87.76          53.03
    0.8542               -29.5          9.062          38.09          64.82         -8.211         -15.41          173.7          83.74         -85.19          87.78          53.12
    0.8898              -29.52          9.087          38.07           64.8         -8.213         -15.41          173.7          83.66         -84.96          87.81          53.22
    0.9254              -29.54          9.114          38.06          64.78         -8.215         -15.41          173.6          83.57         -84.71          87.84          53.33
     0.961              -29.56          9.145          38.03          64.76         -8.218         -15.42          173.6          83.46         -84.43          87.88          53.46
    0.9966              -29.58          9.179          38.01          64.74          -8.22         -15.42          173.5          83.35         -84.11          87.92           53.6
     1.032              -29.61          9.219          37.98          64.72         -8.223         -15.43          173.5          83.22         -83.75          87.96          53.76
     1.068              -29.65          9.264          37.95          64.69         -8.227         -15.44          173.4          83.07         -83.33          88.01          53.94
     1.103              -29.68          9.315          37.91          64.65         -8.231         -15.44          173.3          82.89         -82.86          88.07          54.15
     1.139              -29.73          9.375          37.87          64.62         -8.236         -15.45          173.3          82.69         -82.31          88.14           54.4
     1.175              -29.78          9.444          37.82          64.57         -8.241         -15.46          173.2          82.46         -81.67          88.22          54.68
      1.21              -29.84          9.525          37.77          64.52         -8.248         -15.48          173.0          82.19         -80.92          88.31          55.01
     1.246              -29.91          9.621           37.7          64.46         -8.255         -15.49          172.9          81.87         -80.04          88.42           55.4
     1.281              -29.99          9.735          37.62          64.38         -8.264         -15.51          172.8          81.49          -79.0          88.55          55.86
     1.317              -30.09          9.871          37.52           64.3         -8.275         -15.53          172.6          81.04         -77.75           88.7          56.41
     1.352              -30.21          10.04          37.41          64.19         -8.288         -15.55          172.3          80.48         -76.23          88.89          57.08
     1.388              -30.36          10.24          37.27          64.06         -8.304         -15.58          172.1          79.81         -74.38          89.12           57.9
     1.424              -30.54          10.49          37.09           63.9         -8.324         -15.62          171.7          78.98         -72.09           89.4          58.91
     1.459              -30.77          10.79          36.87           63.7         -8.348         -15.66          171.3          77.95         -69.24          89.75          60.17
     1.495              -31.06          11.18           36.6          63.45         -8.379         -15.72          170.7          76.64         -65.65           90.2          61.76
      1.53              -31.42          11.68          36.25          63.13         -8.419         -15.79          170.1          74.98         -61.09          90.76          63.78
     1.566              -31.89          12.32           35.8          62.72         -8.469         -15.89          169.2          72.86         -55.25          91.49          66.36
     1.602              -32.49          13.13          35.23           62.2         -8.533         -16.01          168.0          70.13         -47.75          92.41          69.67
     1.637              -33.25          14.17           34.5          61.52         -8.616         -16.16          166.6          66.65         -38.18           93.6          73.91
     1.673              -34.21          15.48          33.58          60.68         -8.719         -16.35          164.8          62.28         -26.14          95.09          79.23
     1.708              -35.38          17.07          32.45          59.65         -8.846         -16.59          162.6          56.94         -11.47           96.9          85.71
     1.744              -36.74          18.92          31.15          58.46         -8.992         -16.86          160.0          50.76          5.536          99.01          93.23
      1.78              -38.21          20.92          29.75          57.17         -9.151         -17.16          157.2          44.07          23.95          101.3          101.4
     1.815              -39.68          22.92          28.34          55.88         -9.309         -17.45          154.4          37.38          42.36          103.6          109.5
     1.851              -41.04          24.77          27.04          54.69         -9.456         -17.72          151.9           31.2          59.37          105.7          117.0
     1.886              -42.21          26.37          25.92          53.66         -9.582         -17.96          149.7          25.86          74.04          107.5          123.5
     1.922              -43.17          27.68           25.0          52.82         -9.686         -18.15          147.8          21.49          86.08          109.0          128.8
     1.958              -43.93          28.72          24.26          52.15         -9.768         -18.31          146.4          18.01          95.65          110.2          133.1
     1.993              -44.53          29.53          23.69          51.62         -9.833         -18.43          145.3          15.28          103.1          111.1          136.4
     2.029               -45.0          30.17          23.24          51.22         -9.883         -18.52          144.4          13.16          109.0          111.8          139.0
     2.064              -45.36          30.66           22.9           50.9         -9.922         -18.59          143.7           11.5          113.6          112.4          141.0
       2.1              -45.65          31.05          22.62          50.64         -9.953         -18.65          143.2           10.2          117.1          112.8          142.6
     2.136              -45.88          31.36           22.4          50.44         -9.978          -18.7          142.7           9.16          120.0          113.2          143.8
     2.171              -46.06          31.61          22.23          50.28         -9.997         -18.73          142.4          8.329          122.3          113.4          144.8
     2.207              -46.21          31.81          22.09          50.15         -10.01         -18.76          142.1          7.656          124.1          113.7          145.7
     2.242              -46.33          31.98          21.97          50.05         -10.03         -18.79          141.9          7.106          125.6          113.9          146.3
     2.278              -46.43          32.11          21.87          49.96         -10.04         -18.81          141.7           6.65          126.9          114.0          146.9
